<svg width="57" height="57" fill="none" xmlns="http://www.w3.org/2000/svg"><path d="M0 18h3v9H0v-9Zm30 33h3v6h-3v-6ZM19 30h3v6h-3v-6Zm17 21h3v6h-3v-6ZM3 15h6v3H3v-3Zm6 3h6v3H9v-3Zm0 24h6v3H9v-3ZM24 6h6v3h-6V6Z" fill="#6B3407"/><path d="M15 42h6v3h-6v-3Zm30 0h6v3h-6v-3ZM33 24h6v3h-6v-3Z" fill="#8F4039"/><path d="M27 3h6v3h-6V3Z" fill="#FF4D1E"/><path d="M33 9h6v3h-6V9Z" fill="#8F4039"/><path d="M24 48h15v3H24v-3Zm-2-12h12v3H22v-3ZM21 0h12v3H21V0Zm0 3h3v3h-3V3Zm12 0h3v3h-3V3Zm3 3h3v3h-3V6ZM3 27h3v3H3v-3Z" fill="#6B3407"/><path d="M3 24h3v3H3v-3Zm3 3h3v3H6v-3Zm-3 6h3v3H3v-3Zm6 6h3v3H9v-3Zm10-3h3v3h-3v-3Zm15-3h3v3h-3v-3Z" fill="#9A4E0F"/><path d="M6 39h3v3H6v-3Zm16-9h3v3h-3v-3Z" fill="#6B3407"/><path d="M18 45h3v3h-3v-3Zm6 0h3v3h-3v-3Zm21 0h3v3h-3v-3Zm6-6h3v3h-3v-3Zm-3-3h3v3h-3v-3Zm6-9h3v3h-3v-3Zm-3-3h3v3h-3v-3ZM27 9h3v3h-3V9Z" fill="#8F4039"/><path d="M24 3h3v3h-3V3Zm9 3h3v3h-3V6Z" fill="#C31E1E"/><path d="M30 6h3v3h-3V6Z" fill="#FF4D1E"/><path d="M24 12h3v3h-3v-3Z" fill="#8F4039"/><path d="M3 18h3v3H3v-3Z" fill="#FFE2AF"/><path d="M6 18h3v3H6v-3Zm-3 3h3v3H3v-3Zm9 0h3v3h-3v-3Zm13 9h3v3h-3v-3Zm9 0h3v3h-3v-3Zm0 6h3v3h-3v-3ZM9 27h3v6H9v-6Zm-6 3h3v3H3v-3Zm12 6h3v3h-3v-3Z" fill="#DEA159"/><path d="M15 39h3v3h-3v-3Zm6 3h3v3h-3v-3Zm24-9h3v3h-3v-3Zm0-6h3v3h-3v-3Zm-18 0h15v3H27v-3Zm0 12h6v3h-6v-3Zm6 3h9v3h-9v-3Zm3-3h9v3h-9v-3Zm3-3h9v3h-9v-3Zm0-12h9v3h-9v-3Zm-3-9h9v3h-9v-3Zm-12 0h9v3h-9v-3Zm0 9h9v3h-9v-3Zm6-6h12v6H30v-6Zm7 15h5v3h-5v-3Zm0-3h14v3H37v-3ZM27 12h9v3h-9v-3Z" fill="#FCD100"/><path d="M21 45h3v3h-3v-3Z" fill="#DF8900"/><path d="M21 45h3v3h-3v-3Zm21-3h3v3h-3v-3Zm3-3h3v3h-3v-3Zm3-6h3v3h-3v-3Zm-6 0h3v3h-3v-3Zm3-15h3v3h-3v-3Zm-9-6h3v3h-3v-3Zm-15 3h3v3h-3v-3Zm-3 3h3v3h-3v-3Zm6 9h3v3h-3v-3Zm9 12h3v3h-3v-3Zm15-15h3v6h-3v-6ZM19 39h8v3h-8v-3Zm5 3h9v3h-9v-3Zm3 3h12v3H27v-3Zm-9-15h1v12h-1V30Zm-3 3h3v3h-3v-3Zm0-9h3v3h-3v-3Zm0 3h3v3h-3v-3Zm3 0h3v3h-3v-3Z" fill="#DF8900"/><path d="M42 45h3v3h-3v-3Zm6-6h3v3h-3v-3Zm-33-9h3v3h-3v-3Zm6-6h3v6h-3v-6Zm0-12h3v3h-3v-3Zm0 6h3v3h-3v-3Zm-3 3h3v6h-3v-6Zm33 6h3v3h-3v-3Zm-6-6h3v3h-3v-3Zm-21-3h3v6h-3v-6Z" fill="#FCD100"/><path d="M9 36h3v3H9v-3Zm-3-3h3v6H6v-6Zm6-3h3v12h-3V30Z" fill="#DEA159"/><path d="M6 30h3v3H6v-3Zm3 3h3v3H9v-3Zm13 0h12v3H22v-3Zm6-3h6v3h-6v-3ZM6 21h6v6H6v-6Zm6 3h3v6h-3v-6Z" fill="#FFE2AF"/><path d="M21 9h3v3h-3V9Zm18 3h3v3h-3v-3Z" fill="#8F4039"/><path d="M42 18h3v3h-3v-3Z" fill="#2F2000"/><path d="M42 21h3v3h-3v-3Z" fill="#F4F7AC"/><path d="M27 18h3v3h-3v-3Z" fill="#2F2000"/><path d="M27 21h3v3h-3v-3Z" fill="#F4F7AC"/><path d="M21 21h3v3h-3v-3Zm9-12h3v3h-3V9Zm3 6h3v3h-3v-3Zm9-3h3v3h-3v-3Zm0 15h3v3h-3v-3Zm-5 9h2v3h-2v-3Z" fill="#FFFF0C"/><path d="M42 9h3v3h-3V9Zm9 21h3v6h-3v-6Zm-3-12h3v6h-3v-6Zm-3-6h3v6h-3v-6Zm-27 0h3v6h-3v-6Zm-3 6h3v6h-3v-6Zm24 27h3v3h-3v-3Zm3 3h3v3h-3v-3Z" fill="#8F4039"/><path d="M3 36h3v3H3v-3Zm-3-6h3v6H0v-6Z" fill="#6B3407"/><path d="M15.097 17v1.548h2.29v1.549h1.549v1.548h1.548v1.549h1.548v1.548h8.29v-1.549h1.549v-1.548h1.548v-1.548h4.097v1.548h1.549v1.549h1.583v2H46v-2h2.903v-1.549h1.549v-1.548H52V17H15.097Z" fill="#000"/><path d="M20 18.548v1.549h1.548v-1.549H20Zm1.548 1.549v1.548h1.549v-1.548h-1.549Zm1.549 0h1.548v-1.549h-1.549l.001 1.549Zm1.548 0v1.548h1.548v-1.548h-1.548Zm1.548 1.548v1.549h1.549v-1.549h-1.549Zm-1.548 0h-1.548l-.001 1.549h1.549v-1.549Zm13.936-3.097h1.548v1.549h1.548v-1.549h1.549v1.549h1.548v1.548h-1.548v-1.548h-1.549l-.001 1.548h-1.548l.001-1.548H38.58l.001-1.549Z" fill="#436173"/><path d="M20.484 18.548v1.549h1.548v-1.549h-1.548Zm1.548 1.549v1.548h1.549v-1.548h-1.55Zm1.549 0h1.548v-1.549h-1.55l.002 1.549Zm1.548 0v1.548h1.548v-1.548h-1.548Zm1.548 1.548v1.549h1.549v-1.549h-1.55Zm-1.548 0H23.58l-.001 1.549h1.549v-1.549Zm13.936-3.097h1.548v1.549h1.548v-1.549h1.549v1.549h1.548v1.548H43.71v-1.548h-1.55v1.548h-1.548v-1.548h-1.548v-1.549Z" fill="#667575"/></svg>